<mxfile host="Electron" agent="Mozilla/5.0 (Windows NT 10.0; Win64; x64) AppleWebKit/537.36 (KHTML, like Gecko) draw.io/27.0.9 Chrome/134.0.6998.205 Electron/35.4.0 Safari/537.36" version="27.0.9">
  <diagram name="Overview" id="e4prlykMXOq9PS2ua3T9">
    <mxGraphModel dx="1603" dy="963" grid="0" gridSize="10" guides="1" tooltips="1" connect="1" arrows="1" fold="1" page="1" pageScale="1" pageWidth="1169" pageHeight="827" math="0" shadow="0">
      <root>
        <mxCell id="0" />
        <mxCell id="1" parent="0" />
        <mxCell id="qLd2ae-LlCDvW55Pa13D-7" value="" style="whiteSpace=wrap;html=1;aspect=fixed;rounded=0;strokeColor=#6c8ebf;align=center;verticalAlign=middle;fontFamily=Helvetica;fontSize=12;fontColor=default;fillColor=#dae8fc;" parent="1" vertex="1">
          <mxGeometry x="234" y="128" width="200" height="200" as="geometry" />
        </mxCell>
        <mxCell id="dBhGKuAG7TfBqmYr6w3Z-1" style="edgeStyle=orthogonalEdgeStyle;rounded=0;orthogonalLoop=1;jettySize=auto;html=1;" parent="1" source="qLd2ae-LlCDvW55Pa13D-3" target="qLd2ae-LlCDvW55Pa13D-14" edge="1">
          <mxGeometry relative="1" as="geometry" />
        </mxCell>
        <mxCell id="qLd2ae-LlCDvW55Pa13D-3" value="" style="sketch=0;outlineConnect=0;fontColor=#232F3E;gradientColor=none;fillColor=#7AA116;strokeColor=none;dashed=0;verticalLabelPosition=bottom;verticalAlign=top;align=center;html=1;fontSize=12;fontStyle=0;aspect=fixed;pointerEvents=1;shape=mxgraph.aws4.bucket;" parent="1" vertex="1">
          <mxGeometry x="568" y="189" width="75" height="78" as="geometry" />
        </mxCell>
        <mxCell id="qLd2ae-LlCDvW55Pa13D-11" style="edgeStyle=orthogonalEdgeStyle;rounded=0;orthogonalLoop=1;jettySize=auto;html=1;" parent="1" source="qLd2ae-LlCDvW55Pa13D-4" target="qLd2ae-LlCDvW55Pa13D-3" edge="1">
          <mxGeometry relative="1" as="geometry" />
        </mxCell>
        <mxCell id="qLd2ae-LlCDvW55Pa13D-4" value="" style="shape=cylinder3;whiteSpace=wrap;html=1;boundedLbl=1;backgroundOutline=1;size=15;" parent="1" vertex="1">
          <mxGeometry x="294.63" y="175.5" width="78.75" height="105" as="geometry" />
        </mxCell>
        <mxCell id="qLd2ae-LlCDvW55Pa13D-8" value="&lt;b&gt;NYC Taxi data&lt;/b&gt;" style="text;html=1;align=center;verticalAlign=middle;whiteSpace=wrap;rounded=0;" parent="1" vertex="1">
          <mxGeometry x="239" y="136" width="60" height="30" as="geometry" />
        </mxCell>
        <mxCell id="qLd2ae-LlCDvW55Pa13D-9" value="&lt;i&gt;parquet&lt;/i&gt;" style="text;html=1;align=center;verticalAlign=middle;whiteSpace=wrap;rounded=0;" parent="1" vertex="1">
          <mxGeometry x="304.01" y="280.5" width="60" height="30" as="geometry" />
        </mxCell>
        <mxCell id="qLd2ae-LlCDvW55Pa13D-12" value="&lt;i&gt;S3&lt;/i&gt;&lt;div&gt;&lt;i&gt;Raw&lt;/i&gt;&lt;/div&gt;" style="text;html=1;align=center;verticalAlign=middle;whiteSpace=wrap;rounded=0;" parent="1" vertex="1">
          <mxGeometry x="575.5" y="270" width="60" height="30" as="geometry" />
        </mxCell>
        <mxCell id="qLd2ae-LlCDvW55Pa13D-13" value="AWS Lambda" style="sketch=0;outlineConnect=0;fontColor=#232F3E;gradientColor=none;strokeColor=#ffffff;fillColor=#232F3E;dashed=0;verticalLabelPosition=middle;verticalAlign=bottom;align=center;html=1;whiteSpace=wrap;fontSize=10;fontStyle=1;spacing=3;shape=mxgraph.aws4.productIcon;prIcon=mxgraph.aws4.lambda;" parent="1" vertex="1">
          <mxGeometry x="470" y="138" width="53" height="85" as="geometry" />
        </mxCell>
        <mxCell id="qLd2ae-LlCDvW55Pa13D-14" value="" style="sketch=0;outlineConnect=0;fontColor=#232F3E;gradientColor=none;fillColor=#7AA116;strokeColor=none;dashed=0;verticalLabelPosition=bottom;verticalAlign=top;align=center;html=1;fontSize=12;fontStyle=0;aspect=fixed;pointerEvents=1;shape=mxgraph.aws4.bucket;" parent="1" vertex="1">
          <mxGeometry x="743" y="189" width="75" height="78" as="geometry" />
        </mxCell>
        <mxCell id="qLd2ae-LlCDvW55Pa13D-15" value="&lt;i&gt;S3&lt;/i&gt;&lt;div&gt;&lt;i&gt;Curated&lt;/i&gt;&lt;/div&gt;" style="text;html=1;align=center;verticalAlign=middle;whiteSpace=wrap;rounded=0;" parent="1" vertex="1">
          <mxGeometry x="750.5" y="273" width="60" height="30" as="geometry" />
        </mxCell>
        <mxCell id="dBhGKuAG7TfBqmYr6w3Z-7" value="" style="outlineConnect=0;dashed=0;verticalLabelPosition=bottom;verticalAlign=top;align=center;html=1;shape=mxgraph.aws3.emr;fillColor=#F58534;gradientColor=none;" parent="1" vertex="1">
          <mxGeometry x="660" y="138" width="54.5" height="65.4" as="geometry" />
        </mxCell>
        <mxCell id="dBhGKuAG7TfBqmYr6w3Z-8" value="&lt;span style=&quot;color: rgb(35, 47, 62); font-family: Helvetica; font-size: 10px; font-style: normal; font-variant-ligatures: normal; font-variant-caps: normal; font-weight: 700; letter-spacing: normal; orphans: 2; text-align: center; text-indent: 0px; text-transform: none; widows: 2; word-spacing: 0px; -webkit-text-stroke-width: 0px; white-space: normal; background-color: rgb(251, 251, 251); text-decoration-thickness: initial; text-decoration-style: initial; text-decoration-color: initial; display: inline !important; float: none;&quot;&gt;AWS&amp;nbsp;&lt;/span&gt;&lt;span style=&quot;color: rgb(35, 47, 62); font-size: 10px; font-weight: 700; text-align: center;&quot;&gt;EMR&lt;/span&gt;" style="text;whiteSpace=wrap;html=1;" parent="1" vertex="1">
          <mxGeometry x="661.75" y="198" width="57" height="36" as="geometry" />
        </mxCell>
        <mxCell id="qgE4teAaj3p8RYIvXKpi-8" value="" style="rounded=0;whiteSpace=wrap;html=1;" parent="1" vertex="1">
          <mxGeometry x="234" y="365" width="618" height="153" as="geometry" />
        </mxCell>
        <mxCell id="qgE4teAaj3p8RYIvXKpi-10" value="" style="shape=image;verticalLabelPosition=bottom;labelBackgroundColor=default;verticalAlign=top;aspect=fixed;imageAspect=0;image=data:image/png,iVBORw0KGgoAAAANSUhEUgAAAToAAACgCAMAAACrFlD/AAAAsVBMVEX///8eiP8Agf95uP8AgP8Ag/+qzv8Xhv9ETlmXwv91tv9IUVz6/f/o6eqUmZ5JUlxwtP9OV2G7v8Itj//09PW00//g7v/t9f+ytbl6gIdjanPZ291aYmvm8f9urP/FyMrB2//X6P89SFOrr7Nipv/0+f9udHxUn//L4f/DxciYnaKFipA4lP+92f+hzP/f4OKLvP9Fmf9Xof92sP+TwP+Xx//t7e4zP0zQ0tR+hIuLkJbbUj2+AAANH0lEQVR4nO1dCXeiyhIGBEFBEcEtYiLua1yijuP//2GvqrpRNpOZe899mtDfORMEGmg/q2vrakaSBAQEBAQEBAQEBAQEBH42rEd34DvCCo6j3cpd7UalmSDwL9A7uIqm67oM/zRF3vYe3aHvAmurajJBZ381dSsk708QrDTiS9E0XYO/yJ/mBo/u1jdAQwGudGV3DMawNw6OU3ag8eiOPT2KQJSujqJCFryqwJ36/rA+fQ+sVbQNSQnruyB46vohPfouCNCqZui1HnCna0LffQJkyG1lnBjjmdX/vT/fByUNRmuTPjYbjRiFPfBUtNJDevUd0AJ6lCJ93CqKoh+j3lxDBVqzBFIAcAShm7JPKrl2btQy7IXY3QfoM5WZgh3aWWBP3TevZwNFlt1Hde3JAdxwS2C5YC1GCkleYRyeBz6V2cN699R418IRCdSBgK1dDMI0OfTyYDxrx8d175nxCsqMSRWjTrIOGoazyo6N4hlI5eiRHXxewIDUmAnl1IFLMqIAlgUSY1CAuwf274kBCk5m7siVOhA1zKPoLh2H88IrzoIFzHC+ItSBCkRLS4bWDTkUiOMedQ1B3ZdYZQ5YVxED9ktkmIlm1Ey0hJm4hw/w2/r0KXROtpRdV6YspEDn5PWB/XtiFIG6A31i1DVcjaYlQpe4BOdFqjgTsUBMdqcsELtNhmEgJrKd2VhB+M/CiZ3OZhKVkQj//wgwYrkdKKo6JZ36kbNTXYSwdzHGVCfTZiVdUeRYdq6owlmR6ryHo3KdvOmt1zGecMJHEUJ3HytUcFkVJph7F07dZwjAkdPltBkNcEJMb2ZcIRCij1PYWjFxtIiMKv1HdOgboYE5JmUfTaTP9lhMIYpOvsRMp+qcVWnWGlvj1qy0ojBW7z+6Y98AzR1xReVh4KKwIrGdCCP+CCXG1600UTk8ukvfBq3jirGnY3HiqiQ84b9Bs7HH0p3RR0O4JH8NjGg/sk7MDqPdavp6/Ez9zUrQBsvf/6POPTduyYD4YVfF4nYYyuruXrFicXVts8qjT1NEDy+p5YKdcjMgujrK0oLMRF/bTPO3dACpS8YVfY38Fk2TWWm7Jqc1ITmGMm9DDObOsUHqErnNGYUVq2PQslqzLebf9VSyADOisuaWsE1Qoja5C36JulhFXY/E6SqI1hYDXnccuwqrP/VbStQ6KPdqbH8wimzlSWS0TXG0Rm1mAwatVo5dtQfjwufVGNbYJmcTaURddERiSawW9zYaMDpjUz19VZYTbfrQRs2Xk0IWFmf+Q001TVTEIqevYAyizt8I2myjbSxJKmh5Ky5Dv26v31agNJVrYQVivFdXY6mJZvh2sAfXyDflZ41Ut0cZZi1X2g5ntI9rWvc07VuUyYsImLXTZKVExdmRKtm1EmsDig8zB1jzmKulPkWqj2WenOJ+FGEsUqK4iboNmaOlT1gScOg1GXofvE2P2Nxjm0a0rCAnYNRhbCCTiwsUKk00FuqHZE2BFQWV2hpHrBICl5IFuNJMBeU2wjYFiYpVEnb4h6MYVmW/y4rOMnfamC2f+CB5QlakGV91fIXaY8bj9RWZo9HbVOO25MfjSh1I2ohLXQ/X8ci0poKxAgMad0PwKkZcsYI7nLAgt1KHGAfrKa/WGZGcceZYfuU1xEpmRuOV2mjcJUHjsU0/4OciRp0UWVaBo/UaH7zGLOz1GuQ3ZE4qw9Fc5Z6S1AUqryGz9mQFCFimot58tua1zmykqnt+EEvOlFxlAJLUWSsQMOae9a9e2gH95kgjLKotJtrcyZn+YCSpQxdOTuRAArS0/ehFGHLEJawJBkPN1XhNU2dh4ckuWv3fwiP72FW0Wjuahxqv8lfok6JOmmFaZHWTqRnl5uIyNkPfZXVLpszy+NaANHXSFv017YOvtkMrqqeG4jHW5hXdwZwN10zqJMwLy5rqTvc7WY3njK8oKdc2LmuTu7L3LOooL8zDBxQuOSuF2aCloGF0oeWw0CeTOqm3h5AsrKl4HWdcB9ZjFGmTOd/4w5FNHTgbh6muqIq8P96fYA3bTEu5coVD3KMOYI1b46+WKFrj3pdtfio+oU7gcwjq/jEEdf8Yn1L3J1osr5qOZh0yJ2NaxdeVrLm7j8Z9bqzg/VAoFw7FIJf8zbSstPi4oPN3x2qJRWQ3WOtyrVwuFArlcq3Q/297+ZTAtOU+ebAvh+EEFaSssuL6ZqFWQJTpby2Hr+Yd48xMIlzgbxjT3JWrsVK79NT0rAacgdgVDvQX/uQsbyJRjUlicVMRmVNHayS01dhhjVjqBVkBilyNv192dqS93HFXvL7OjoMqEyNv8lzTEvf4eGyhnBVubQJUeuW8xbEtLSF2mO91o0xh7asWL2I6lIG5KFM92C/nbiEtVndFijbflVT9K879x2rncLiW422acKiWtyxAC4XqNmRvs103bBO1c8dyoZa0HI08il0DJyNG3KsN1Iw3TtCbUW+COUaHJOkFW+ioZGf2fjA+cBJ/xwYgBmbp8odRbPZ/ViuU0yn393IOjSwVQOgyvSYGaGQkzYgGa0b6q8jfQmm1EI1MkpDQXJUmMtCr6zX5Y93E+k2Uv2Ot1sBRWKshkX0mi71yDQHjtZYOHsBQlPM2KYY4qnxhMa+vk0DpH4ArPjRnrEz2nUVd6P+mfThsm7tZMUTAl3zxskPpvVbrw+ZQo6HJpW4N8T5CSF0c/RFfx850XUBKzgqIo3f+erH1O+IgdF0SrcbHfiV/bWEDYWGz0FQzXtXZwtLYL/y6Mfp1uUx5XoHRRFLbl7X4mxQhmkiNzVxGE3EUlVTN0jq5/oti2HjAGuQxhk0CMydyKnMSX3VYwsxJtE0Ph2vOhS58WdZtPL6T1xL341o0JRELzYDL3EWwKRQpLzyl/zqmV6T/qi21XJNliQ8zliU+0F7ehyuiyCYkFN1la//1jCoxlhfGoIz+gAzm2jG5YubyGTGKLpRdljz1trXCDbVt3rLr92BtZXpPFsqem/Z+GfoFjMtA3sq1Qr7WX3+OcaM8deXVdLv+xM1tNo7bwvYo3mqURr6DAwEBAQEBAQEBAQEBAQEBAQEBAQEBAQEBAYFnRmXerm+ue+2Xc7qJt6nQ9sS3EUxePrv1ZvPJ2RuGL3/W7rngXUwD0PH4/vDXPDy1qYYf64MLbdt8G8GL/cnNfdvxMk90q7EfqPqr+xddfhZMzM7b5rwYhD/7eXH9FufBgn+qm5w6u5q8/sW5f++u7dsZMgyYD9qx3UVKmp8fC3tJ225G37vGv6RuYWZcQJgb7czj3wgnxzlFditdABtilXO37Vy65zOKTZy6LpOkzRlbAnWb4fAt8+4vvuX7t5vXoZ3Hbj20F3DrbvKhePP2sM1HAJw/tYd173ZmOI/29rGY253o7uLXwDSYghvCR98ZADykjglPnah7MejbTAyU1Be/PgBd+ZKh0yog0VUjHP9Vc2AbA/yl8Cm+DXc26cQSdgdhq4th2AZ7muX4Z7iz7XvhGdMcDJ7GnizsRXQXLOjCZBLkVSpzs3qqVJCfur0EY7mpDIm6CdP9HYdR59S90yL+EzC0jbr0Fg76pdnpet55UsFbn9r2kN8azXDlEhK8MDsbbzMxhrjj+/6bV+mwLtaN3xXP61afhrqLndQ5Q+M6+CK6znHQDBuOk6bOoUYTI20jO2YFNAJzXs7GhB1kZT0JXbfgV3sm3RrUCG58BwdAxaErLxkPeCh+23UJrepiEX6VCHXnCHWTIWKZQZ1NctA2h8l7n+g7d9j5iz2PnrtD3ZvNdOpvE9Wpz57j+0h3lXr6RFiS1A0HthMOuGzqYrouIXW0czZTHl/dxMuHJpE0sWMm/A514Q+wMJEnnwnsC1F3Np1l/WlGq4S6Dvvqnc72b37kDnVRC5ugjs50uZMTwdIZgn1usx/lJWbJ71HHeebbGHXS2wR8d/95fJo6/8abf0HdHanzQD+CFTUc26Nr/kTqbtSlpA5wOlcd42mG7cZh/fo76mzmnER1XT2l685m54xYkpZbxsOKO9TNuQe9ZLouQZ2EyvC39Cz4TSMWqMvQdRszHIRx6pYmftGKw6WObtAxkhFX1WQCwr7tmxHzXm6/CiGk7mSQB+0xSc2grmJkOEEPQsWxh57kDRl1ngdjZW55zAmFITc/0ec4dW2740mViR/6dWfU75PknX1uGDyHfNqJfQFtd7rwFIzpnz32GHxa1Tyzh17MC/RmyYQvRl0VowrvYqQM+ePQ9Q3bMQ0fheZtYJq2Y5sGd+7rtmEMMHSIZ04837b9wbBD0YTvDAe+b/jJGLg7CLNRkwHKsdcxTGg34NZiCDp/4LB74kNN0/h1olbOi2N0kCyIJqgp81E6EIG82MbzjFfEvLqsskCxUg/Bv6D3Bp9hu6nzsJVtveGyepbe6KJ5XTpflsNUHBZeAiTW2Q9xXiwvwyvDJ7j1nDUM4YW94SqDnccn4DPPi8tykZ2HERAQEBAQEBAQEBAQEBD4yfgfLhENtFM5ToYAAAAASUVORK5CYII=;" parent="1" vertex="1">
          <mxGeometry x="294.63" y="380.1600000000001" width="240.76" height="122.68" as="geometry" />
        </mxCell>
        <mxCell id="qgE4teAaj3p8RYIvXKpi-12" value="" style="shape=image;verticalLabelPosition=bottom;labelBackgroundColor=default;verticalAlign=top;aspect=fixed;imageAspect=0;image=data:image/png,iVBORw0KGgoAAAANSUhEUgAAAOEAAADhCAMAAAAJbSJIAAAAxlBMVEX///91nD9KYStIXipWcTB3n0BwlT1mhzjS1s47VQ9vlyxumDJymjpmhjrA0au6y6CnvodqlCG0yJj5+/aswY/s8ebT3sP09/B0mjaEpVJulynFy73o7t/h6ddDWyLa5M2nsJrM2bplkROJqlueuHqWsnCRr2Y4UwhAWRu9zqehuX5rfFV9oUeGp1XW4MfO2728xbBKZxpTaDWAjm6Coleks5FifD91jVSGm2iZrH6qu5GjrZVwhFShs4ZedEGsvZF5lVJZfiDy0e9LAAAGlUlEQVR4nO2cYXebRhaGsdxJnYEghgExjEEYEJNYQdJuttuN29Rp//+f2juAHOS1tz21cmR03ueDrBgY7sO9cxkZO44DAAAAAAAAAAAAAAAAAAAAAAAAAAAAAAAAAAAAAAAAAAAAAAAAAACAUyH/UZw6hO+KvJn9U7e38anj+G7cfPow+4F5rmrOM5FXbz/MZmR4cXHhcTc8w0Rev53tDQmXm508dUhH5tDQJtKLslMHdVQeGxJK12Vy6riOxxOGlEiXrfNTR3YsnjS0kpqdSWt9zpC6zu2pY3s5V//6Kfz38llD/9TxvRB58+n98o374+XZGl69J7M37JwN38IQhq8dGMLw9QNDGL5+YAjD1w8MYfj6gSEMXz/PGXo9yjs7Q8bI66JNa9Os1gGxXq8bY9LpPqt5ZPjm5/98vvtlHgXrVWPSVg2p9NzzMby8vFwuf+zNxrPxfAztl8t3/9NxYPiKgeEZGL7/a4bTfCAs43zxy/1sufxTQ8+N5v4ijyf2TPjXn+/C+Xz+9e7LT+b3/2NIt416bfcMV+20HibefFh++vLbvOO35XI5u3zC0FMXJrB688BceHxaS7ibDzOq0Nnnr73j5/vlD2psyGhVmjZRtzUyNpVTW4Zbw5mVvB8kv94FESn3hrSmqVeDXpOqfoUzMcNfu2f3g+RdX63zuy+f7KrtoTZp8qXf1m98WvPw6uP75eyb5Je7cJiTn39vgv5tuK5Hy1NPm6ndNK7uR46zb31nIKgvDvzqKf7iyfXHt2NH6jt7ycAcfLrwuJmin+V6XKv7vhM19NFwfEvUk/WzXN2P80iSl+8OPhtS/uqp//LXozwermkmnr891+Oec7CmmWZ/eYpRz/lmOOH+8hQPtbo3PJP6HHPd95zekPrLuflZqFZ7wzOrzzE2j+88vTlXP8v1xz/ONn97pn5/BwAAAM4Zmbz4bwaz3Tb506Gk/IvnSY79nENx9rIRF6nQmgcU/1qEz+8W8OC5TdvF+ClcUK1fFM9jFtrj5UsGKLV7YVKX12TI/55hWy1G/4qe3/Fv0ahWmeG9tPUhhyKR8eNqkcmwxVbSvuQSpRr64nNRkkRnOGwcVyWV7xOGwylkynvDuDvQGsbx0f7clgLccU1FkrR1yTQrF/Qypw0hE0I10lm1KdHSHretUoZW1yULQ8XbbT/ALVedd2Bue8NkxVRra7ZmVBuLdkOR10pFZJi1aezEbZs7sqbj5609RZLTx8q2TZzFhmsWdoaR1uxY6/hb3jiMk1KilVob5fKVUSJ3oqrO85auZmBMw5SIaZK1geFVTulSaZAq0Q/QuM3DYNYwUdwELW8dJ7UP1XaaOQnnJtwoFTit3lFV0+kyoeRt1RZ5zVfxmqookkXF1xGjmRzRhQxTlR7JsKZJOLfxUBg7RyqXZDcUmu9T1tZ99FvFI4pJZ9bBkCGn9ql1/zDCjIrPGoZ2QiZMl4MhZzQ+fctpydBWamDL2qdxSp9GCOkNnbC0kVD+FoI7kUu7Fy/tf3tyrTKZc56ToYod2WoqjsaGFvtB7XZTrOB8ZSfaptufybJ7p3lfRo27OjCsu74V0SEPhk03PUOyK3TqMCoSx9AVsKcwrm0CKR1DuR+e30Sceml8LMNAeVpojy7v3rDoDSPBmyCwOcyUaztRaS+2E2uWlF1K9oaR23ZNwVSrznBDpWB1DgznztAimS4q3xcF14njV7oJIncwjNX+Fze6HY9mqD3bSFrF5CPDim/7SSqZSq3CQqvOs6Vsjg0z7doMZUr3vbRPmKHXztAnw8DWgGNcCnyljM5zUdvMtTbb3YWzhpJxOnXeNsc1pDZqo6cK2clDQ0GpSBhVKXUIv9huYwooSApFkR8aOpHmjT9XtjNYw0LoRRJykdn7UF4wj1Fpcz+hnkuBb7milCvP/iG0vQLJpqtStdrSwZss24j5cQ2N6G+FtahlRUFJVVnDyndCIZgwYiM556KqqtDJlaiE3d+v7Dysqn07p9YuhLb3k3UVOfbISmhKXy54Va2odfTfMoKmlxSaRlgJOheNI5iuBXW5SOgqoSCqSqyGNU1WqWMYysWun93ZYufs7P9pkef2xS6iinKXyKKQiw67nyx93/4wLd5at93uIYKYNnS37Hxnt2R+14i7N7nc2S2572dZaQ8u7C60ju12L8vYKbrvliWdtxjGz+louT33n9sBAAAAAAAAAAAAAAAAAAAAAAAAAAAAAAAAAAAAAAAAAAAAAAAAAADfif8CtFmrLJQYbk4AAAAASUVORK5CYII=;clipPath=inset(26.89% 13.56% 27.78% 13.56%);" parent="1" vertex="1">
          <mxGeometry x="577.75" y="371.53" width="225" height="139.9390243902439" as="geometry" />
        </mxCell>
        <mxCell id="s9uTPJIabB_G27d4T3Ws-2" value="" style="shape=image;verticalLabelPosition=bottom;labelBackgroundColor=default;verticalAlign=top;aspect=fixed;imageAspect=0;image=data:image/png,iVBORw0KGgoAAAANSUhEUgAAAR4AAACwCAMAAADudvHOAAAAw1BMVEX///84NDHnchU0MC3nbgD19fUyLSpXU1AuKSUzLiswLCgrJiIvKifmchb5+fk2MS7f39/nbwzncAAnIR3u7u5ycG6rqqnR0dC2tbT9+/jl5eWCgH+npqWhoJ/a2dnJyMj56dyZmJdDQD1samleW1mQj47BwcBKR0T88+zoeR5BPTp5eHb0zrLrkU/yw6LpgC3vsIPwt4711r/vqHftoWzqiUHxvprqgzXsm2Drk1H44tCKiIcfGRX438z0yKvvrXwPAAC9GLToAAAQiElEQVR4nO1cZ0PqzBI2pJBmAgQIRSEUEwSxINg46v3/v+qm7s5uipxDfXGfb0KWbGanPjPx4oKBgSELn4/vb/eTY+/iRNFeCkJVEG7vj72Rk0T7TShdlkqlqvB07K2cIpZCKYbwcuy9nB7uIt0JUL39OPZuTg3t12qiPKVL4a197P2cGBbItELz+jr2fk4Mz4R4qg/OsTd0Umg/VEuE+jwfe0cnBYdQHl99Sotjb+mUcEeJpyS8s+wZ44kSz2VJYMkzxpLWHuadAXDWg8XEvDPCpBbL5PbxFitQsXduT35N7vgpXMYWNXnEpdc87/nbk8XLcj6fP9/9DgndxzKpzi8mKAO6zPbOk8+v5WtVEKrVqlB7+xXx7VuIBfIciCouTS/T3rn98bVclXzRIA1bHmO7h8Y8ft6Aymi/C0h9CO/s3D2vboFoIjhH2vIBgQyq9un/tcDPXku88+TzcZ4WTSDQX5BdO3Hgqt46wZ/YO1dX7UA0T28PNd/XpGQDBXjGSNiM6mvoaSeY+xEe75eJaC4zpOOHumNvfv94ScTzFv39BZLDLIsCtvV93J0fBElJkTxswMonyNIZrDyRNZ45VkngShKdzyKZQOX5DXXrJCkkwsAVgq7gkR5V4Re/oyz7QBWXk3wEvDOSjp8lC7X50wpn1fNf4JcxF1YFRRbNjwWiWT3eTUBWJKx+hXSSkoKsEN6ESyibh+W9EwgPeaXL3+GWfbwnnhl2jz8ihxRY1MP700esKM5tFUnnFySE/gPfv5US8dzBL3zvHAwkvD8tsA21V4lOVWvnH7Tazv17TcBexoFfTlal1eOCdC+gD/94yI0eAe2PpzlRSdEFguPQS55xLb88ayKsvXh8DcsFkBRXc9nBGPdYd865zTNZPD+kS6nLn+wFt+Grr85BNnoETO6Wt0JGTvzjWM9HErTOd8DF+XrLJLWC1KZ2+1m49BXJtHZXdOF/Fe27Atm8Pt85hYvnwmXsp84zpH/Os23Kl83qe/GTqz33kP5VyhKOL5v54+fPYegbjdbVznJy7KuWilRhTvzyscnT3iPpnGeVjmolrDbCw9uXs5kmLNDiMx1MeCEtS6g9LL+cTRfDkF4Y3f6zeK9Czvj2e+FsvtZZJbKtnmdIx2xyhIcXZ/Olk3ecLZ/rPPgbZVwPz5+bBiDots7RLQdIzw5WV5uqEKblz/Zti8lDKluuCrfLxSYqBGj5s+VP71J5TxjAVk/Oz2tx2Dvfzs19TrV1+3b3k0eB71vspVYXK/2rm/X62q2I+/j5jZBdVQRd9NdH54elqGuxh3Enw16XeUlSdV2SzPJNb+c32BAf79nTBFVh9YNOAPWp7rg/YbTGusxzCXid73Z2e4eN0V7MMwgNofbiO2hjULQSBz7hbadbsscalk0IU+bdnd7ib/C5rJECqgrvTrBNb1i4DqeVO513GsgKl4JpXe/wFn8J5+kWCEi4Dd7cMtaWPipcBXjm+c62Io40My0dH1ahKu8Zk5eVEBIUl1UhHLx1pzKn3xQvekfeeWfqUx/LmcIJ5NPc0T3+DYv3gDkUHoIKs94IzlBrFa9AUxzRvOEOUC/redLhTK2/k3v8Mz6Wfo4XqE5rGp6h/JM/xFWbsJOy3Rjl6k4QwYbHy4AiOAF102lYUeSQbPJbw6Auh+qzi8r0RiuQjn9csx3cY1s0p2qszVyd/Gbma7dDiOEbq88OWhU2lI4paZpKBHhTa2x/j23h/kn2ZE7Jbwb/843tuRQP9YRwsPq8bq8+IwmLQh/OWq2up2MBKfxxfXOEAdojXya+uLa0QVCmCULt9TGpyR53SGzYFpYOdxX6GaM1TZIguXy00gKiqyZ7lAhdbqrhB3e1MG8USu8vAXk2wZTz1oR8F/llfoiCVMVTIsOaHdsvR8AaLsNEzOV4ThkbyYBY2A17WN453ztrBYoKygclYEaVoW9fCncKhuXDGCNrt0Bc7/vS4cxh5WICGOpAifCLgtuqTx/ZljmEFWiLN+WynbvssOh4SDwgDetFnyr9FEMNsKX3uUa2ZXpEyJxZ3SLDqld6tm33evWCaygYnWCJ3ft7KqmHAymPfGGnLCF9eswVz4+jUsW4weKZVogt5Sfv9d5gVOZky7JkrtwY9DZ53E6rOxqqmmVp6nTcdX+gSuqdSozwQhtsMjmPelnF3ugrXzzbvYmzxvWE+kOxF6N341myFHss05Rkbdz8QYfEVoOz9MTLmbxqTbv5hltvzcqcGsHqBp+0cPjwkosayWfSyLhY1PLEs+VbgFh7/Li+Ab1jz3SdLu4VzSuqE8Wmp0nUGlOXG9kpg3jlaTqfXK5dhZtEcZ0fR1cZXZTMqn7ockrV0mX2Kznb9SwGoN7ivZ+SnN5MUrkMmHKjkrfGLct81hqVu6bLpYsUKxfV5zMU19W4wlkj6ZhT3zW3n1alHAJ2u7qrBUsKdVxoJUZzmFva68Psyr4zUzOFE8p0lrqdy0nENXz4q2NE1ckRPzdAu+a5SHEnny/zrFHELSNXnahH9VGBfMRZyqwAlEzTdL0iNkAeUS7apQhdfhjos1im0p6rlHQCtJ37t1uKghW2HU1tEMcl56fJlXzOLN5pWn9aXJ7qRNBHhH3ZCnU5Xw6OqzJEx6IFHr2FXJOpkk6v7Xx9PwAJCQ/bzrG4JJ0hrzMcQiidcrF0fP3xaP/TzPY6ANoaXC56NN/Nj4Pd2OBX/Fv0eVS+61fpjU4Wj6uaEP7jx9qbs6V0Lowyuacc+VTKtE/medrUVIolb8p0vEqvgdzowKK+jAvQPojr4kUP6E6GdEIJOS/P7/Pl08bDHQXoU2yYvM64iOJbJc3iPG+qWaTMZKJGa6lQFn6yo049j9M0wprNIfJ29bQlymEqhsOHH9c7Q1xgFPVR2rsavFxTVqOn72qMgHRMmR817Uq93un56R4UGw/rEnsKnpa3vK7b89dU7ObIhELVUAneBNSKboX4X6hbOHWVGqKHFmubpbHboj4mdcCUUzp7DSQocWuQHvVmsAUkX4NfBVri541QcCOgsLgSHiEr57mbfgg3XNVAXyhdfE4Hko7vV6akVpsaJR8bOBF9TJUDLR50nsvIcYFqhZdvyHgoQno7uVkdxSc6fcdpD4d3qmX5gP3ApYOSRcoH7E/upjy3CyoGKQnufRN9yCvpiI/zupDPCtBDOkx5XNHLiH9yIyfC7gNNKmaYMswnWvhbPatrClYjMg/ze7yZUaqIwPRijgKzuiq5oDdNZ6MHlU5AaVPy0bF+Gx7aXmZUg6llUjLiWGyqmYWcjW0vJgBRfCJ5Of+30t1/vnFgkrdLywfv0cXHOso+swq6IkhMAjRwfMkmZA3siGOZ3yQC48vks7vpPpx06NERwBDEohgnokB2YnJ5JA1oBoWXdJC3UPO6ZE10P2VE/oZCZ5dp8fDeX7CUO4HRoHaRHHsHqUZ+KL3G/ELohgeJJphcHkdSwdE6MkhUd6pUW7abQRPQ1+wfmH9Lniw6IXR4FNsKgQl9PfDpBgp1+Y9RL6M4HnX2UHySqFMYZUweUQn6IVCnRhHifBb5XSm/m1z/Q4gHU+dW/nwH+t1IPBXOhD+BYWA6A5BB+Wq5N1DyMbnwQ3SqBZM1WDxq4DSRMvFePuc+S7x3JB4cyqhQV8eBUwfUrzQ+aGgPIJLyCXtKOCqZBew5Ek/omlEQynXMPtaJePjQFYPKmLRhG29I74xw/XOwogKDLL/CingjTegl4onyAcQNqwWZPxJP5J+Qi6Pv4yKLMqf1DsjQ1cMPhnaGIENVu3DbZjk/FcPPFhZdyJnKBaOJSDwRa4HiE09ZDaYzgvIDZOhKwXntCy5kIYKIi0rLIvGgZ4vc90biQSoWZc042FEGiZOG8LiAeamzg7sf0DSJxIMCTEEqVkdVUZQsIfHoBcaF0sAouqEIEAohc0Phr1UAyZbHFu4RQH1C8YBqPTeUNin3jcQj5WdvdRSvo5IUURUqycaB6YyIHcRtCo6f7ju6u/QNOrg+Dk5LxGFVy3OF+JrYbyDxmOVcjask94m8eQ/dhvK4gM6Ia1cQPqTxXktTu/GHVv86GBbxdbeCVZmuhRAweRPnstge8tNCRO9EIu3jPjEZ10Gw+BN9UwF8/j6je68rq/yUOl+gPcEIMTFbl63KNn6yuMzH3lTKHfFHE5/RJS4uXSg6A92f0+KtAvPaX+1eWZtBvKGDSwv5GlMRIZvhG1smB9XDrYOEDgLDrnJmqi2CXEAPXTFis+kI0MJcUkyWXBggehVlY1ugM+AiApnSCRF7wrBtdU304DM6J70hZtATjghMc5nDDJUbNEHaEzncGaYzyDO4Qok8Nu4eh81L3kN0r18NEbtOuDcDMOihK55BNsFMDxu6UxzZVPTtDB9vuncqrvU+uMQipwx0Kq6jAgW+bAIPLd1X2RprC2R/Oh6U6Myg2gbHMiZocJ6/IVS/cwOyEAmfO+T2FY90z+5Y890L5jysUL2QA6aGsAzMOwI3QFDV052PQLaI0lMuu6ECdZpwniLK8MpUl0AutxJjN+zBEE4HATpIhMtMfWYngqu7DUUJ3Auow4NlBjIXlVRQ8EuQlu2B6CUVj938A8DmwidTy7PZbDSEHT0prCHqqS4BL3uza9u2W90xDycMyGEJUv66Ml43/TWDRllTg1AuYvcRuWIbc4f9vJ0S7wbB3oG88+h+Q3W2eEmSFCgJkw9VtpfB1PGSrGmaTI01kS8OGiNyjElRgzV6VG9LvjdF05RKWGJha+TJSFTB52NBJTFgE1bZdXSvmLRWUIjb+/R8Qi7o1yp704zeXfLbA8CTRHQG7uJQeZgL0lIiREHz2j0zT6sP/QRxM7S1mXjM9LBEU8k9gMCJoNgTWQYacaS7OE2Q9pARHEavItrtn1DP6sziB0gSwJv89wQBlKwxpAE93YMgtQAFEjlcxAvQD4pHQ2mqmzCvnG7av8POebmWC3QBNdJxWC0wRtnLrKwGubNhfVC1RmkPalvQb9LiPEymFdQGDiK/BfevaObJRwEJBg6rXp6ZSVY3x/JbZuaUb+ApcHJuhXEdOWBKCCLu4tBjI+TQ8e6je9PKOl3Tgm+a4Hqqdy1nuSvJogdaACpjKyPyKX7t1EnitckFkUrEdAZZo+FuWEb1JhLmtfOBFttLCYi3hlfAA3aQ0PxyqtK1KHeiyNaoOKa2ypZKrlEt5TqYplT4EGrICPW16C9e0Uhhd7j4Op630sdgcyqPkEtH/TPEa++PiiIML2nW+IoIHDZiUqMJ2hvP0iQp3I2katYG/4bEcGemJUdPoUi6pTTCFzD65QShr3GTv8YjMnBVxujCrL7WFf7av2D3fXfRnY05608wx6d4o+setQXEwiRhQ+xdzUZlz/PGo26rslmt3OmvG2N/iTdq3PRRRSLGIP9M/SK6Lv1VtCGAjXbztzAqtu26tl3JED5KewhOXazX//qg6v+w5uSBwqp6zP+lcbLALYcf/nPF74RHNlsYSHBEdsJAAk1wHX5Y7b+APh4LOI3X/U8LLbLZwkDiiiRlGEigXlQWn8OAZ26O9x/6ThhTKSmkc0d2fzEMXAyzwJUB0YiQUy0zMDAwMDAwMDAwMDAwMDAwMDAwMDAwMDAwMDAwMDAwMDAwMDAwMDAwMDAwMDAwMDAwMDD8EvwfM1FDvRAY3kQAAAAASUVORK5CYII=;" vertex="1" parent="1">
          <mxGeometry x="658.5699999999999" y="241.5" width="63.37" height="39" as="geometry" />
        </mxCell>
      </root>
    </mxGraphModel>
  </diagram>
</mxfile>
